<svg width="800" height="306" viewBox="0 0 800 306" fill="none" xmlns="http://www.w3.org/2000/svg">
<path d="M132.881 199.392L203.189 29.76H264.941L132.881 305.412L0.820761 29.76H62.2008L132.881 199.392ZM316.254 52.824C316.254 44.888 319.106 38.44 324.81 33.48C330.514 28.272 337.334 25.668 345.27 25.668C353.206 25.668 359.902 28.272 365.358 33.48C371.062 38.44 373.914 44.888 373.914 52.824C373.914 60.512 371.062 66.96 365.358 72.168C359.902 77.376 353.206 79.98 345.27 79.98C337.334 79.98 330.514 77.376 324.81 72.168C319.106 66.96 316.254 60.512 316.254 52.824ZM321.462 119.04H368.334V290.16H321.462V119.04ZM427.29 119.04H532.938V159.588H427.29V119.04ZM456.678 59.52H503.178V290.16H456.678V59.52ZM566.397 119.04H672.045V159.588H566.397V119.04ZM595.785 59.52H642.285V290.16H595.785V59.52ZM727.453 2.26498e-05H775.813V290.16H727.453V2.26498e-05Z" fill="white"/>
</svg>
